<svg xmlns="http://www.w3.org/2000/svg" viewBox="0 0 32 32" fill="none">
  <!-- Background circle -->
  <rect width="32" height="32" rx="8" fill="#1a56db"/>
  <!-- Car body -->
  <path d="M5 20h22v2a1 1 0 01-1 1H6a1 1 0 01-1-1v-2z" fill="white"/>
  <path d="M6 20l2.5-6h15l2.5 6" fill="white" opacity="0.9"/>
  <!-- Windshield / windows -->
  <path d="M10 14l1.5-4h9l1.5 4H10z" fill="#1a56db"/>
  <path d="M11.5 14l1-3h4v3h-5z" fill="#60a5fa" opacity="0.8"/>
  <path d="M16.5 14v-3h3.5l1 3h-4.5z" fill="#60a5fa" opacity="0.8"/>
  <!-- Wheels -->
  <circle cx="10" cy="22" r="3" fill="#1e293b"/>
  <circle cx="10" cy="22" r="1.5" fill="#94a3b8"/>
  <circle cx="22" cy="22" r="3" fill="#1e293b"/>
  <circle cx="22" cy="22" r="1.5" fill="#94a3b8"/>
  <!-- Headlights -->
  <rect x="5" y="18.5" width="2" height="1.5" rx="0.5" fill="#fbbf24"/>
  <rect x="25" y="18.5" width="2" height="1.5" rx="0.5" fill="#f97316"/>
</svg>
